<svg width="341" height="326" viewBox="0 0 341 326" fill="none" xmlns="http://www.w3.org/2000/svg">
<g filter="url(#filter0_d_64_2)">
<ellipse cx="165.5" cy="162.149" rx="122.5" ry="122" fill="#333333"/>
</g>
<circle cx="165.5" cy="162.649" r="2.5" fill="white"/>
<path d="M208 162.149C208 185.928 188.941 205.149 165.5 205.149C142.059 205.149 123 185.928 123 162.149C123 138.369 142.059 119.149 165.5 119.149C188.941 119.149 208 138.369 208 162.149Z" stroke="#CD7BFF" stroke-width="6"/>
<path d="M213.913 195.141C197.281 219.799 161.887 225.185 134.803 206.917C107.72 188.649 99.4544 153.815 116.087 129.156C132.719 104.498 168.113 99.1126 195.196 117.381C222.28 135.649 230.545 170.483 213.913 195.141Z" stroke="white" stroke-width="2"/>
<path d="M221.902 201.615C202.175 230.862 160.562 237.439 128.91 216.089C97.2583 194.74 87.7676 153.693 107.495 124.447C127.222 95.2001 168.835 88.6233 200.487 109.973C232.138 131.322 241.629 172.369 221.902 201.615Z" stroke="white" stroke-width="2"/>
<path d="M229.792 206.142C207.281 239.516 160.071 247.169 124.306 223.045C88.5404 198.921 77.951 152.282 100.462 118.908C122.973 85.5341 170.183 77.8812 205.948 102.005C241.713 126.129 252.303 172.768 229.792 206.142Z" stroke="white" stroke-width="2"/>
<path d="M237.132 210.695C211.993 247.966 159.498 256.637 119.846 229.892C80.1944 203.146 68.5694 151.225 93.7088 113.955C118.848 76.6841 171.343 68.0128 210.995 94.7584C250.647 121.504 262.272 173.424 237.132 210.695Z" stroke="white" stroke-width="2"/>
<path d="M243.473 215.248C215.706 256.415 157.926 266.106 114.387 236.738C70.8474 207.371 58.1884 150.168 85.9557 109.002C113.723 67.835 171.502 58.1438 215.042 87.5116C258.581 116.879 271.24 174.082 243.473 215.248Z" stroke="white" stroke-width="2"/>
<path d="M250.264 220.828C220.024 265.66 157.271 276.313 110.072 244.476C62.873 212.64 49.2421 150.467 79.4821 105.634C109.722 60.8012 172.475 50.1489 219.674 81.9851C266.873 113.821 280.504 175.995 250.264 220.828Z" stroke="white" stroke-width="2"/>
<path d="M257.604 225.381C224.737 274.108 156.7 285.782 105.613 251.323C54.5248 216.864 39.8619 149.408 72.729 100.681C105.596 51.9532 173.633 40.279 224.721 74.7382C275.809 109.197 290.471 176.653 257.604 225.381Z" stroke="white" stroke-width="2"/>
<path d="M262.737 228.842C227.394 281.241 154.753 294.117 100.469 257.502C46.185 220.887 30.9118 148.712 66.2554 96.313C101.599 43.9139 174.24 31.0377 228.524 67.6526C282.808 104.267 298.081 176.443 262.737 228.842Z" stroke="white" stroke-width="2"/>
<g filter="url(#filter1_f_64_2)">
<path d="M104.498 154.648C114.682 146.446 126.036 128.681 128.498 116.648L139.5 43.6486C61.5 60.6486 30.5005 141.149 48.9985 197.148L104.498 154.648Z" fill="#333333"/>
</g>
<g filter="url(#filter2_f_64_2)">
<path d="M223.574 171.51C212.932 179.686 201.069 197.393 198.496 209.386L187 282.149C268.502 265.204 298.5 188.149 282.5 128.649L223.574 171.51Z" fill="#333333"/>
</g>
<path d="M338.5 85L314 77C317 85.5 314.464 91.7846 307 96L332 104C333.812 104.325 334.419 103.975 335 102.5L340 87.5C340.189 86.1627 339.869 85.6015 338.5 85Z" fill="#B4B5B4" stroke="#676767" stroke-width="0.5"/>
<circle cx="328.504" cy="92.25" r="8.125" stroke="#020708" stroke-width="1.25"/>
<circle cx="328.504" cy="92.25" r="7" fill="white" stroke="#333333"/>
<path d="M317.752 89.7517L318.598 87.7588L319.901 89.4879L317.752 89.7517Z" fill="#676767"/>
<path d="M288.513 154.033L284.85 134.73L296.999 94.6486C287 88.1487 292.499 70.1486 305.999 72.1486L310.76 60.6486C313.129 63.0245 314.736 64.2471 318.261 64.1486L312.999 75.1486C322.729 84.1486 314.678 98.6486 302.999 97.1485C295.836 119.058 290.882 136.338 288.513 154.033Z" fill="#333333"/>
<circle cx="304.5" cy="84.6486" r="10.5" fill="#4D4F4E" stroke="#E7E9E8" stroke-width="2"/>
<path d="M327 63.5L305 53.5L313.152 36.7167C313.319 36.3057 313.56 36.2352 314.15 36.325L320.5 39.5L321.693 36.7167C321.976 36.2571 322.195 36.2206 322.65 36.325L329.5 39.75C329.866 40.0411 329.868 40.2058 329.714 40.5L328 43.5L334.337 46.6688C334.671 47.033 334.812 47.2433 334.671 47.6793L327 63.5Z" fill="#B4B5B4"/>
<line x1="306.273" y1="53.4121" x2="307.797" y2="50.1444" stroke="black" stroke-width="0.5"/>
<line x1="307.332" y1="53.9058" x2="308.856" y2="50.638" stroke="black" stroke-width="0.5"/>
<line x1="308.391" y1="54.3995" x2="309.915" y2="51.1317" stroke="black" stroke-width="0.5"/>
<line x1="309.45" y1="54.8931" x2="310.973" y2="51.6254" stroke="black" stroke-width="0.5"/>
<line x1="310.508" y1="55.3868" x2="312.032" y2="52.119" stroke="black" stroke-width="0.5"/>
<line x1="311.567" y1="55.8805" x2="313.091" y2="52.6128" stroke="black" stroke-width="0.5"/>
<line x1="312.625" y1="56.3741" x2="314.149" y2="53.1064" stroke="black" stroke-width="0.5"/>
<line x1="313.684" y1="56.8678" x2="315.208" y2="53.6001" stroke="black" stroke-width="0.5"/>
<line x1="314.743" y1="57.3614" x2="316.267" y2="54.0937" stroke="black" stroke-width="0.5"/>
<line x1="315.802" y1="57.8551" x2="317.326" y2="54.5874" stroke="black" stroke-width="0.5"/>
<line x1="316.86" y1="58.3488" x2="318.384" y2="55.081" stroke="black" stroke-width="0.5"/>
<line x1="317.919" y1="58.8425" x2="319.443" y2="55.5748" stroke="black" stroke-width="0.5"/>
<line x1="318.978" y1="59.3362" x2="320.502" y2="56.0684" stroke="black" stroke-width="0.5"/>
<line x1="320.037" y1="59.8298" x2="321.56" y2="56.5621" stroke="black" stroke-width="0.5"/>
<line x1="321.095" y1="60.3235" x2="322.619" y2="57.0557" stroke="black" stroke-width="0.5"/>
<line x1="322.154" y1="60.8171" x2="323.678" y2="57.5494" stroke="black" stroke-width="0.5"/>
<line x1="323.212" y1="61.3108" x2="324.736" y2="58.043" stroke="black" stroke-width="0.5"/>
<line x1="324.271" y1="61.8046" x2="325.795" y2="58.5368" stroke="black" stroke-width="0.5"/>
<line x1="325.33" y1="62.2982" x2="326.853" y2="59.0305" stroke="black" stroke-width="0.5"/>
<line x1="326.389" y1="62.7919" x2="327.912" y2="59.5241" stroke="black" stroke-width="0.5"/>
<path d="M305 53.25C311 64.25 315 65.75 327 63.25L305 53.25Z" fill="#CECCCD"/>
<path d="M305 53.5C311.273 64.781 316.432 65.7363 327 63L334 48.5C334.392 47.6311 334.364 47.1811 333.5 46.5L328 43.5L329.5 40.875C329.748 40.4581 329.81 40.2455 329.5 40L322.5 36.5C321.995 36.4305 321.772 36.5178 321.5 37L320.5 39.5L314.5 36.5C313.75 36.2012 313.446 36.3864 313 37L305 53.5Z" stroke="#676767" stroke-width="0.5"/>
<path d="M288.703 154.443L285.041 135.14L280.349 166.389C278.798 175.549 276.182 178.998 270.5 184.649L262.111 190.676L266.251 195.978L275.149 190.585C283.593 183.991 288.703 171.649 288.703 154.443Z" fill="#CD7BFF"/>
<path d="M266.073 195.993L261.573 190.493C260.87 189.868 260.436 189.853 259.573 190.493L250.573 196.993C249.744 197.59 249.877 198.058 250.573 198.993L255.073 204.493C255.852 205.012 256.293 204.977 257.073 204.493L265.573 198.493C266.444 197.618 266.669 197.088 266.073 195.993Z" fill="#020708"/>
<line x1="250.451" y1="198.448" x2="261.338" y2="190.392" stroke="#CECCCD" stroke-width="0.5"/>
<line x1="251.551" y1="199.771" x2="262.438" y2="191.716" stroke="#CECCCD" stroke-width="0.5"/>
<line x1="252.913" y1="201.416" x2="263.8" y2="193.361" stroke="#CECCCD" stroke-width="0.5"/>
<line x1="254.152" y1="203.061" x2="265.038" y2="195.005" stroke="#CECCCD" stroke-width="0.5"/>
<line x1="255.351" y1="204.705" x2="266.203" y2="196.675" stroke="#CECCCD" stroke-width="0.5"/>
<path d="M255.318 205.722L249.318 198.222C247.848 196.974 246.651 196.25 245 197.149L218.318 217.972C217.5 219.649 217.846 219.85 219 222.149L223 227.149C225.265 228.831 226.087 228.245 228.5 227.149L240 239.649L243 236.649L233.318 224.722L254.818 210.722C255.965 208.921 256.139 207.836 255.318 205.722Z" fill="#CD7BFF"/>
<rect x="244.319" y="200.43" width="3.22242" height="2.76237" transform="rotate(55 244.319 200.43)" fill="#333333"/>
<rect x="236.189" y="206.392" width="3.22242" height="2.76237" transform="rotate(55 236.189 206.392)" fill="#333333"/>
<rect x="232.121" y="209.516" width="3.22242" height="2.76237" transform="rotate(55 232.121 209.516)" fill="#333333"/>
<rect x="246.952" y="204.163" width="3.22242" height="2.76237" transform="rotate(55 246.952 204.163)" fill="#333333"/>
<rect x="249.378" y="207.662" width="3.22242" height="2.76237" transform="rotate(55 249.378 207.662)" fill="#333333"/>
<rect x="245.559" y="210.81" width="3.22242" height="2.76237" transform="rotate(55 245.559 210.81)" fill="#333333"/>
<rect x="240.357" y="203.277" width="3.22242" height="2.76237" transform="rotate(55 240.357 203.277)" fill="#333333"/>
<rect x="236.972" y="216.514" width="3.22242" height="2.76237" transform="rotate(55 236.972 216.514)" fill="#333333"/>
<rect x="243.008" y="207.048" width="3.22242" height="2.76237" transform="rotate(55 243.008 207.048)" fill="#333333"/>
<rect x="238.764" y="209.905" width="3.22242" height="2.76237" transform="rotate(55 238.764 209.905)" fill="#333333"/>
<rect x="234.52" y="212.761" width="3.22242" height="2.76237" transform="rotate(55 234.52 212.761)" fill="#333333"/>
<rect x="241.221" y="213.649" width="3.22242" height="2.76237" transform="rotate(53.5 241.221 213.649)" fill="#333333"/>
<defs>
<filter id="filter0_d_64_2" x="41" y="38.1486" width="257" height="256" filterUnits="userSpaceOnUse" color-interpolation-filters="sRGB">
<feFlood flood-opacity="0" result="BackgroundImageFix"/>
<feColorMatrix in="SourceAlpha" type="matrix" values="0 0 0 0 0 0 0 0 0 0 0 0 0 0 0 0 0 0 127 0" result="hardAlpha"/>
<feOffset dx="4" dy="4"/>
<feGaussianBlur stdDeviation="3"/>
<feComposite in2="hardAlpha" operator="out"/>
<feColorMatrix type="matrix" values="0 0 0 0 0 0 0 0 0 0 0 0 0 0 0 0 0 0 0.2 0"/>
<feBlend mode="normal" in2="BackgroundImageFix" result="effect1_dropShadow_64_2"/>
<feBlend mode="normal" in="SourceGraphic" in2="effect1_dropShadow_64_2" result="shape"/>
</filter>
<filter id="filter1_f_64_2" x="39.7974" y="39.6486" width="103.703" height="161.5" filterUnits="userSpaceOnUse" color-interpolation-filters="sRGB">
<feFlood flood-opacity="0" result="BackgroundImageFix"/>
<feBlend mode="normal" in="SourceGraphic" in2="BackgroundImageFix" result="shape"/>
<feGaussianBlur stdDeviation="2" result="effect1_foregroundBlur_64_2"/>
</filter>
<filter id="filter2_f_64_2" x="183" y="124.649" width="107.646" height="161.5" filterUnits="userSpaceOnUse" color-interpolation-filters="sRGB">
<feFlood flood-opacity="0" result="BackgroundImageFix"/>
<feBlend mode="normal" in="SourceGraphic" in2="BackgroundImageFix" result="shape"/>
<feGaussianBlur stdDeviation="2" result="effect1_foregroundBlur_64_2"/>
</filter>
</defs>
</svg>
